<svg width="32" height="32" viewBox="0 0 32 32" fill="none" xmlns="http://www.w3.org/2000/svg">
    <path d="M16 29.3334C23.3638 29.3334 29.3333 23.3639 29.3333 16.0001C29.3333 8.63628 23.3638 2.66675 16 2.66675C8.6362 2.66675 2.66667 8.63628 2.66667 16.0001C2.66667 23.3639 8.6362 29.3334 16 29.3334Z" stroke="#2563EB" stroke-width="2.66667" stroke-linecap="round" stroke-linejoin="round"/>
    <path d="M21.3333 10.6667H13.3333C12.6261 10.6667 11.9478 10.9477 11.4477 11.4478C10.9476 11.9479 10.6667 12.6262 10.6667 13.3334C10.6667 14.0407 10.9476 14.7189 11.4477 15.219C11.9478 15.7191 12.6261 16.0001 13.3333 16.0001H18.6667C19.3739 16.0001 20.0522 16.281 20.5523 16.7811C21.0524 17.2812 21.3333 17.9595 21.3333 18.6667C21.3333 19.374 21.0524 20.0523 20.5523 20.5524C20.0522 21.0525 19.3739 21.3334 18.6667 21.3334H10.6667" stroke="#2563EB" stroke-width="2.66667" stroke-linecap="round" stroke-linejoin="round"/>
    <path d="M16 24V8" stroke="#2563EB" stroke-width="2.66667" stroke-linecap="round" stroke-linejoin="round"/>
</svg>
